# Blender v2.91.2 OBJ File: 'cube1.blend'
# www.blender.org
mtllib cube.mtl
o Cube
v 1.000000 1.000000 -1.000000
v 1.000000 -1.000000 -1.000000
v 1.000000 1.000000 1.000000
v 1.000000 -1.000000 1.000000
v -1.000000 1.000000 -1.000000
v -1.000000 -1.000000 -1.000000
v -1.000000 1.000000 1.000000
v -1.000000 -1.000000 1.000000
v 0.948500 1.000000 -0.948500
v -0.948500 1.000000 -0.948500
v -0.948500 1.000000 0.948500
v 0.948500 1.000000 0.948500
v 0.948500 -0.948500 1.000000
v 0.948500 0.948500 1.000000
v -0.948500 0.948500 1.000000
v -0.948500 -0.948500 1.000000
v -1.000000 -0.948500 0.948500
v -1.000000 0.948500 0.948500
v -1.000000 0.948500 -0.948500
v -1.000000 -0.948500 -0.948500
v -0.948500 -1.000000 -0.948500
v 0.948500 -1.000000 -0.948500
v 0.948500 -1.000000 0.948500
v -0.948500 -1.000000 0.948500
v 1.000000 -0.948500 -0.948500
v 1.000000 0.948500 -0.948500
v 1.000000 0.948500 0.948500
v 1.000000 -0.948500 0.948500
v -0.948500 -0.948500 -1.000000
v -0.948500 0.948500 -1.000000
v 0.948500 0.948500 -1.000000
v 0.948500 -0.948500 -1.000000
v 1.000000 -1.000000 1.000000
v 1.000000 -0.948500 -0.948500
v 0.948500 1.000000 0.948500
vt 0.000000 0.000000
vt 0.000000 0.000000
vt 0.000000 0.000000
vt 0.000000 0.000000
vt 0.000000 0.000000
vt 0.000000 0.000000
vt 0.000000 0.000000
vt 0.000000 0.000000
vt 0.000000 0.000000
vt 0.625000 0.500000
vt 0.875000 0.500000
vt 0.875000 0.500000
vt 0.875000 0.750000
vt 0.875000 0.750000
vt 0.625000 0.750000
vt 0.625000 0.750000
vt 0.625000 0.500000
vt 0.375000 0.750000
vt 0.625000 0.750000
vt 0.625000 1.000000
vt 0.625000 1.000000
vt 0.375000 1.000000
vt 0.375000 1.000000
vt 0.375000 0.750000
vt 0.375000 0.000000
vt 0.625000 0.000000
vt 0.625000 0.000000
vt 0.625000 0.250000
vt 0.625000 0.250000
vt 0.375000 0.250000
vt 0.375000 0.250000
vt 0.375000 0.000000
vt 0.125000 0.500000
vt 0.375000 0.500000
vt 0.375000 0.500000
vt 0.375000 0.750000
vt 0.125000 0.750000
vt 0.125000 0.750000
vt 0.125000 0.500000
vt 0.375000 0.500000
vt 0.625000 0.500000
vt 0.625000 0.750000
vt 0.375000 0.750000
vt 0.375000 0.250000
vt 0.625000 0.250000
vt 0.625000 0.500000
vt 0.375000 0.500000
vt 0.000000 0.000000
vt 0.000000 0.000000
vt 0.000000 0.000000
vt 0.000000 0.000000
vt 0.000000 0.000000
vt 0.000000 0.000000
vt 0.000000 0.000000
vt 0.000000 0.000000
vt 0.000000 0.000000
vt 0.000000 0.000000
vt 0.000000 0.000000
vt 0.000000 0.000000
vt 0.000000 0.000000
vt 0.000000 0.000000
vt 0.000000 0.000000
vt 0.000000 0.000000
vt 0.000000 0.000000
vt 0.000000 0.000000
vt 0.000000 0.000000
vt 0.000000 0.000000
vt 0.000000 0.000000
vt 0.000000 0.000000
vt 0.000000 0.000000
vt 0.000000 0.000000
vt 0.000000 0.000000
vn 0.0000 0.0000 1.0000
vn -1.0000 0.0000 0.0000
vn 0.0000 -1.0000 0.0000
vn 0.0000 1.0000 -0.0000
vn 1.0000 0.0000 0.0000
vn -0.0000 0.0000 -1.0000
vn 0.5774 0.5774 -0.5773
vn -0.0187 -0.7070 0.7070
vn 0.7070 -0.0187 -0.7070
vn -0.0264 0.0264 0.9993
vn 0.7071 0.0000 -0.7071
vn 0.5774 -0.5774 -0.5773
vn -0.0187 0.7070 0.7070
vn 0.5773 0.5774 0.5774
vn 0.0264 0.9993 -0.0264
vn -0.7071 0.0000 0.7071
usemtl Material
s off
f 15/1/1 13/2/1 14/3/1
f 19/4/2 17/5/2 18/6/2
f 24/7/3 21/8/3 22/9/3
f 9/10/4 5/11/4 10/12/4
f 10/12/4 7/13/4 11/14/4
f 11/14/4 3/15/4 12/16/4
f 12/16/4 1/17/4 9/10/4
f 13/18/1 3/15/1 14/19/1
f 14/19/1 7/20/1 15/21/1
f 15/21/1 8/22/1 16/23/1
f 16/23/1 4/24/1 13/18/1
f 17/25/2 7/26/2 18/27/2
f 18/27/2 5/28/2 19/29/2
f 19/29/2 6/30/2 20/31/2
f 20/31/2 8/32/2 17/25/2
f 21/33/3 2/34/3 22/35/3
f 22/35/3 4/24/3 23/36/3
f 23/36/3 8/37/3 24/38/3
f 24/38/3 6/39/3 21/33/3
f 25/40/5 1/17/5 26/41/5
f 26/41/5 3/15/5 27/42/5
f 27/42/5 4/24/5 28/43/5
f 28/43/5 2/34/5 25/40/5
f 29/44/6 5/28/6 30/45/6
f 30/45/6 1/17/6 31/46/6
f 31/46/6 2/34/6 32/47/6
f 32/47/6 6/30/6 29/44/6
f 1/48/1 32/49/1 2/50/1
f 32/49/7 25/51/7 2/50/7
f 25/51/8 29/52/8 2/50/8
f 23/53/4 2/50/4 22/9/4
f 29/52/1 5/54/1 6/55/1
f 5/54/5 20/56/5 6/55/5
f 1/48/9 25/51/9 32/49/9
f 25/51/3 29/52/3 32/49/3
f 1/48/10 31/57/10 25/51/10
f 31/57/11 26/58/11 25/51/11
f 30/59/1 5/54/1 29/52/1
f 5/54/5 19/4/5 20/56/5
f 1/48/12 26/58/12 31/57/12
f 26/58/3 30/59/3 31/57/3
f 1/48/13 30/59/13 26/58/13
f 1/48/1 5/54/1 30/59/1
f 29/52/1 6/55/1 2/50/1
f 23/53/4 4/60/4 2/50/4
f 4/60/2 25/51/2 2/50/2
f 25/51/2 1/48/2 2/50/2
f 12/61/1 34/62/1 35/63/1
f 9/64/6 26/58/6 25/51/6
f 26/58/2 1/48/2 25/51/2
f 5/54/4 7/65/4 11/66/4
f 26/58/14 1/48/14 9/64/14
f 26/58/2 3/67/2 1/48/2
f 12/61/15 3/67/15 26/58/15
f 14/3/6 4/60/6 13/2/6
f 14/3/6 3/67/6 4/60/6
f 3/67/16 12/61/16 4/60/16
f 11/66/4 7/65/4 3/67/4
f 5/54/4 11/66/4 10/68/4
f 10/68/4 11/66/4 12/61/4
f 12/61/4 11/66/4 3/67/4
f 12/61/4 3/67/4 1/48/4
f 10/68/4 12/61/4 9/64/4
f 9/64/4 12/61/4 1/48/4
f 5/54/4 10/68/4 9/64/4
f 1/48/4 5/54/4 9/64/4
f 4/60/1 35/63/1 33/69/1
f 25/51/1 33/69/1 34/62/1
f 29/52/1 2/50/1 32/49/1
f 30/59/1 29/52/1 32/49/1
f 30/59/1 32/49/1 31/57/1
f 31/57/1 32/49/1 1/48/1
f 5/54/1 30/59/1 31/57/1
f 5/54/1 31/57/1 1/48/1
f 3/67/5 4/60/5 28/70/5
f 28/70/5 4/60/5 2/50/5
f 28/70/5 2/50/5 25/51/5
f 3/67/5 28/70/5 27/71/5
f 27/71/5 28/70/5 25/51/5
f 27/71/5 25/51/5 26/58/5
f 3/67/5 27/71/5 26/58/5
f 19/4/2 20/56/2 17/5/2
f 24/7/3 22/9/3 23/53/3
f 15/1/1 16/72/1 13/2/1
f 9/10/4 1/17/4 5/11/4
f 10/12/4 5/11/4 7/13/4
f 11/14/4 7/13/4 3/15/4
f 12/16/4 3/15/4 1/17/4
f 13/18/1 4/24/1 3/15/1
f 14/19/1 3/15/1 7/20/1
f 15/21/1 7/20/1 8/22/1
f 16/23/1 8/22/1 4/24/1
f 17/25/2 8/32/2 7/26/2
f 18/27/2 7/26/2 5/28/2
f 19/29/2 5/28/2 6/30/2
f 20/31/2 6/30/2 8/32/2
f 21/33/3 6/39/3 2/34/3
f 22/35/3 2/34/3 4/24/3
f 23/36/3 4/24/3 8/37/3
f 24/38/3 8/37/3 6/39/3
f 25/40/5 2/34/5 1/17/5
f 26/41/5 1/17/5 3/15/5
f 27/42/5 3/15/5 4/24/5
f 28/43/5 4/24/5 2/34/5
f 29/44/6 6/30/6 5/28/6
f 30/45/6 5/28/6 1/17/6
f 31/46/6 1/17/6 2/34/6
f 32/47/6 2/34/6 6/30/6
f 12/61/1 25/51/1 34/62/1
f 4/60/1 12/61/1 35/63/1
f 25/51/1 4/60/1 33/69/1
